<?xml version="1.0" encoding="UTF-8" standalone="no"?>
<!-- Uploaded to: SVG Repo, www.svgrepo.com, Generator: SVG Repo Mixer Tools -->
<svg width="800px" height="800px" viewBox="0 -13 64 64" version="1.1" xmlns="http://www.w3.org/2000/svg" xmlns:xlink="http://www.w3.org/1999/xlink" xmlns:sketch="http://www.bohemiancoding.com/sketch/ns">
    
    <title>Wall</title>
    <desc>Created with Sketch.</desc>
    <defs>
</defs>
    <g id="Page-1" stroke="none" stroke-width="1" fill="none" fill-rule="evenodd" sketch:type="MSPage">
        <g id="Wall" sketch:type="MSLayerGroup" transform="translate(1.000000, 1.000000)" stroke="#6B6C6E" stroke-width="2">
            <path d="M28,34 C28,35.1 27.1,36 26,36 L13,36 C11.9,36 11,35.1 11,34 L11,29 C11,27.9 11.9,27 13,27 L26,27 C27.1,27 28,27.9 28,29 L28,34 L28,34 Z" id="Shape" sketch:type="MSShapeGroup">
</path>
            <path d="M45,34 C45,35.1 44.1,36 43,36 L30,36 C28.9,36 28,35.1 28,34 L28,29 C28,27.9 28.9,27 30,27 L43,27 C44.1,27 45,27.9 45,29 L45,34 L45,34 Z" id="Shape" sketch:type="MSShapeGroup">
</path>
            <path d="M62,34 C62,35.1 61.1,36 60,36 L47,36 C45.9,36 45,35.1 45,34 L45,29 C45,27.9 45.9,27 47,27 L60,27 C61.1,27 62,27.9 62,29 L62,34 L62,34 Z" id="Shape" sketch:type="MSShapeGroup">
</path>
            <path d="M11,34 C11,35.1 10.1,36 9,36 L2,36 C0.9,36 0,35.1 0,34 L0,29 C0,27.9 0.9,27 2,27 L9,27 C10.1,27 11,27.9 11,29 L11,34 L11,34 Z" id="Shape" sketch:type="MSShapeGroup">
</path>
            <path d="M28,16 C28,17.1 27.1,18 26,18 L13,18 C11.9,18 11,17.1 11,16 L11,11 C11,9.9 11.9,9 13,9 L26,9 C27.1,9 28,9.9 28,11 L28,16 L28,16 Z" id="Shape" sketch:type="MSShapeGroup">
</path>
            <path d="M45,16 C45,17.1 44.1,18 43,18 L30,18 C28.9,18 28,17.1 28,16 L28,11 C28,9.9 28.9,9 30,9 L43,9 C44.1,9 45,9.9 45,11 L45,16 L45,16 Z" id="Shape" sketch:type="MSShapeGroup">
</path>
            <path d="M62,16 C62,17.1 61.1,18 60,18 L47,18 C45.9,18 45,17.1 45,16 L45,11 C45,9.9 45.9,9 47,9 L60,9 C61.1,9 62,9.9 62,11 L62,16 L62,16 Z" id="Shape" sketch:type="MSShapeGroup">
</path>
            <path d="M11,16 C11,17.1 10.1,18 9,18 L2,18 C0.9,18 0,17.1 0,16 L0,11 C0,9.9 0.9,9 2,9 L9,9 C10.1,9 11,9.9 11,11 L11,16 L11,16 Z" id="Shape" sketch:type="MSShapeGroup">
</path>
            <path d="M17,7 C17,8.1 16.1,9 15,9 L2,9 C0.9,9 0,8.1 0,7 L0,2 C0,0.9 0.9,0 2,0 L15,0 C16.1,0 17,0.9 17,2 L17,7 L17,7 Z" id="Shape" sketch:type="MSShapeGroup">
</path>
            <path d="M34,7 C34,8.1 33.1,9 32,9 L19,9 C17.9,9 17,8.1 17,7 L17,2 C17,0.9 17.9,0 19,0 L32,0 C33.1,0 34,0.9 34,2 L34,7 L34,7 Z" id="Shape" sketch:type="MSShapeGroup">
</path>
            <path d="M51,7 C51,8.1 50.1,9 49,9 L36,9 C34.9,9 34,8.1 34,7 L34,2 C34,0.9 34.9,0 36,0 L49,0 C50.1,0 51,0.9 51,2 L51,7 L51,7 Z" id="Shape" sketch:type="MSShapeGroup">
</path>
            <path d="M17,25 C17,26.1 16.1,27 15,27 L2,27 C0.9,27 0,26.1 0,25 L0,20 C0,18.9 0.9,18 2,18 L15,18 C16.1,18 17,18.9 17,20 L17,25 L17,25 Z" id="Shape" sketch:type="MSShapeGroup">
</path>
            <path d="M34,25 C34,26.1 33.1,27 32,27 L19,27 C17.9,27 17,26.1 17,25 L17,20 C17,18.9 17.9,18 19,18 L32,18 C33.1,18 34,18.9 34,20 L34,25 L34,25 Z" id="Shape" sketch:type="MSShapeGroup">
</path>
            <path d="M51,25 C51,26.1 50.1,27 49,27 L36,27 C34.9,27 34,26.1 34,25 L34,20 C34,18.9 34.9,18 36,18 L49,18 C50.1,18 51,18.9 51,20 L51,25 L51,25 Z" id="Shape" sketch:type="MSShapeGroup">
</path>
            <path d="M62,25 C62,26.1 61.1,27 60,27 L53,27 C51.9,27 51,26.1 51,25 L51,20 C51,18.9 51.9,18 53,18 L60,18 C61.1,18 62,18.9 62,20 L62,25 L62,25 Z" id="Shape" sketch:type="MSShapeGroup">
</path>
        </g>
    </g>
</svg>